<?xml version="1.0" encoding="UTF-8"?>
<svg id="Layer_2" data-name="Layer 2" xmlns="http://www.w3.org/2000/svg" viewBox="0 0 96.54 108.89">
  <defs>
    <style>
      .cls-1 {
        fill: currentColor;
      }
    </style>
  </defs>
  <g id="Layer_1-2" data-name="Layer 1">
    <path class="cls-1" d="M48.27,30.91v15.57c0,4.81,2.91,9.14,7.37,10.96l38.43,15.63c1.49.61,2.46,2.05,2.46,3.66v19.68c0,2.8-2.84,4.72-5.44,3.66l-38.55-15.68c-2.05-.83-4.28.67-4.28,2.88v17.67c0,2.8-2.84,4.72-5.44,3.66L2.46,92.18c-1.49-.61-2.46-2.05-2.46-3.66v-19.68c0-2.8,2.84-4.72,5.44-3.66l38.54,15.68c2.05.83,4.28-.67,4.28-2.88v-15.57c0-4.81-2.91-9.14-7.37-10.96L2.47,35.82C.98,35.21,0,33.77,0,32.16V12.49C0,9.68,2.84,7.77,5.44,8.83l38.54,15.68c2.05.83,4.28-.67,4.28-2.88V3.95c0-2.8,2.84-4.72,5.44-3.66l40.37,16.42c1.49.61,2.46,2.05,2.46,3.66v19.68c0,2.8-2.84,4.72-5.44,3.66l-38.55-15.68c-2.05-.83-4.28.67-4.28,2.88Z"/>
  </g>
</svg>